<svg width="46.000000" height="46.000000" viewBox="0 0 46 46" fill="none" xmlns="http://www.w3.org/2000/svg" xmlns:xlink="http://www.w3.org/1999/xlink">
	<rect id="hh-logo" width="46.000000" height="46.000000" fill="#FFFFFF" fill-opacity="0"/>
	<path id="Shape" d="M23 46C35.7 46 46 35.7 46 23C46 10.29 35.7 0 23 0C10.29 0 0 10.29 0 23C0 35.7 10.29 46 23 46Z" fill="#D6001D" fill-opacity="1.000000" fill-rule="nonzero"/>
	<path id="Shape" d="M12.9409 11.96L12.9409 19.7717C14.1455 18.3536 15.5889 17.6398 17.2632 17.6398C18.1255 17.6398 18.8979 17.8025 19.5908 18.1249C20.2852 18.4455 20.8047 18.8569 21.1553 19.3564C21.5083 19.8607 21.7466 20.4127 21.8755 21.0213C22.0034 21.627 22.0674 22.5695 22.0674 23.8478L22.0674 32.2L18.3252 32.2L18.3252 24.6774C18.3252 23.1847 18.2573 22.2393 18.1152 21.8375C17.9814 21.4438 17.7168 21.1064 17.3643 20.8806C17.0039 20.6404 16.5552 20.5218 16.0137 20.5218C15.3936 20.5218 14.8374 20.6749 14.3535 20.9792C13.8599 21.2853 13.5049 21.7427 13.2803 22.3541C13.0518 22.9666 12.937 23.8707 12.9409 25.0677L12.937 32.2L9.2002 32.2L9.2002 11.96L12.9409 11.96ZM27.6753 19.7717L27.6753 11.96L23.938 11.96L23.938 32.2L27.6753 32.2L27.6753 25.0677C27.6753 23.8707 27.7896 22.9666 28.0142 22.3541C28.2417 21.7427 28.5986 21.2853 29.0859 20.9792C29.5703 20.6749 30.1265 20.5218 30.7456 20.5218C31.2871 20.5218 31.7397 20.6404 32.0962 20.8806C32.4502 21.1057 32.7153 21.4432 32.8491 21.8375C32.9917 22.2393 33.062 23.1847 33.062 24.6774L33.062 32.2L36.8003 32.2L36.8003 23.8478C36.8003 22.5695 36.7363 21.627 36.6074 21.0213C36.4844 20.4238 36.2393 19.8573 35.8877 19.3564C35.5386 18.8569 35.0195 18.4455 34.3276 18.1249C33.6338 17.8025 32.856 17.6398 31.9966 17.6398C30.3232 17.6398 28.8804 18.3536 27.6753 19.7717Z" clip-rule="evenodd" fill="#FFFFFF" fill-opacity="1.000000" fill-rule="evenodd"/>
</svg>
