<svg width="24" height="24" viewBox="0 0 24 24" fill="none" xmlns="http://www.w3.org/2000/svg">
<path fill-rule="evenodd" clip-rule="evenodd" d="M22.7836 12.601C23.0591 12.2616 23.0795 11.7827 22.7989 11.4187C20.3566 8.24965 16.1985 6.6235 12.045 7.21315L11.6721 7.2661L8.92189 4.92953C8.75488 4.78763 8.54391 4.69807 8.3189 4.67353L2.20499 4.00687C1.81721 3.96458 1.43503 4.11979 1.2057 4.41269C0.976375 4.70559 0.935686 5.09048 1.09931 5.41907L3.25088 9.73979C3.65737 10.6316 3.83065 11.3347 3.83065 12C3.83065 12.6653 3.65732 13.3685 3.25072 14.2605L1.09931 18.5809C0.935686 18.9095 0.976375 19.2944 1.2057 19.5873C1.43503 19.8802 1.81721 20.0354 2.20499 19.9931L8.3189 19.3265C8.54391 19.3019 8.75488 19.2124 8.92189 19.0705L11.6721 16.7339L12.045 16.7868C16.1898 17.3752 20.3393 15.7571 22.7836 12.601ZM20.5518 12C18.5448 9.83011 15.4567 8.75214 12.3718 9.19009L5.69281 10.1383C5.88521 10.7628 5.9885 11.3742 5.9885 12C5.9885 12.6258 5.88521 13.2371 5.69282 13.8617L12.3718 14.8099C15.4567 15.2478 18.5448 14.1699 20.5518 12Z" fill="#7F7F7F"/>
</svg>
