<svg width="14" height="14" viewBox="0 0 14 14" fill="none" xmlns="http://www.w3.org/2000/svg">
<path d="M4.79867 10.1542C4.90929 10.2395 5.06785 10.2821 5.27434 10.2821H8.64823C9.21608 10.2821 9.5 10.0557 9.5 9.60282C9.5 9.37966 9.42625 9.20901 9.27876 9.09087C9.13127 8.97272 8.92109 8.91365 8.64823 8.91365H6.66814C6.42478 8.91365 6.22935 8.97929 6.08186 9.11056V8.80536C6.08186 8.5822 6.1556 8.41483 6.3031 8.30325C6.45796 8.1851 6.7382 8.07352 7.14381 7.9685C7.71903 7.81754 8.17625 7.63377 8.51549 7.41717C8.85472 7.20057 9.09808 6.92819 9.24558 6.60001C9.39307 6.27183 9.46681 5.86489 9.46681 5.37919C9.46681 4.72284 9.22714 4.21089 8.74779 3.84333C8.26844 3.46921 7.60472 3.28215 6.75664 3.28215C6.15929 3.28215 5.66519 3.35435 5.27434 3.49874C4.9646 3.60376 4.80973 3.79082 4.80973 4.05993C4.80973 4.26339 4.87611 4.41436 5.00885 4.51281C5.14897 4.61126 5.36652 4.66049 5.6615 4.66049C5.86062 4.66049 6.0708 4.64736 6.29204 4.62111C6.52065 4.59485 6.7382 4.58173 6.94469 4.58173C7.2913 4.58173 7.53466 4.66377 7.67478 4.82786C7.8149 4.98538 7.88496 5.17244 7.88496 5.38904C7.88496 5.69753 7.83702 5.93709 7.74115 6.10775C7.64528 6.27183 7.48673 6.4031 7.26549 6.50156C7.05162 6.59345 6.75664 6.69518 6.38053 6.80676C5.68732 6.99054 5.20059 7.25308 4.92035 7.59438C4.64012 7.93569 4.5 8.39842 4.5 8.98257V9.40592C4.50737 9.55688 4.5295 9.69799 4.56637 9.82926C4.61062 9.96054 4.68805 10.0688 4.79867 10.1542Z" fill="black"/>
<path fill-rule="evenodd" clip-rule="evenodd" d="M14 7C14 10.866 10.866 14 7 14C3.13401 14 0 10.866 0 7C0 3.13401 3.13401 0 7 0C10.866 0 14 3.13401 14 7ZM12.5 7C12.5 10.0376 10.0376 12.5 7 12.5C3.96243 12.5 1.5 10.0376 1.5 7C1.5 3.96243 3.96243 1.5 7 1.5C10.0376 1.5 12.5 3.96243 12.5 7Z" fill="black"/>
</svg>
