<svg width="14" height="14" viewBox="0 0 14 14" fill="none" xmlns="http://www.w3.org/2000/svg">
<path d="M6.07427 10.2977C6.2383 10.3173 6.457 10.3271 6.73038 10.3271C7.29765 10.3271 7.78973 10.2422 8.20664 10.0724C8.63038 9.89606 8.95844 9.65117 9.19081 9.33772C9.43002 9.02426 9.54962 8.66183 9.54962 8.25042C9.54962 7.95655 9.45052 7.67575 9.25232 7.408C9.05412 7.14026 8.79441 6.93782 8.47319 6.80068C8.67822 6.6962 8.84908 6.50029 8.98577 6.21295C9.1293 5.92562 9.20106 5.62195 9.20106 5.30197C9.20106 4.68159 8.98577 4.19181 8.5552 3.83264C8.12463 3.46694 7.53344 3.28409 6.78164 3.28409C5.69495 3.28409 5.15161 3.55837 5.15161 4.10692C5.15161 4.47262 5.34981 4.65546 5.74621 4.65546C5.90341 4.65546 6.07769 4.63914 6.26905 4.60649C6.46725 4.57384 6.6552 4.55751 6.8329 4.55751C7.11312 4.55751 7.35916 4.61955 7.57103 4.74362C7.7829 4.8677 7.88883 5.05382 7.88883 5.30197C7.88883 5.62195 7.8034 5.85052 7.63254 5.98765C7.46168 6.11826 7.25664 6.18356 7.01743 6.18356H6.68938C6.58686 6.17703 6.48776 6.17377 6.39208 6.17377C6.09819 6.17377 5.85898 6.20969 5.67445 6.28152C5.49675 6.35335 5.4079 6.53294 5.4079 6.82027C5.4079 7.10761 5.50017 7.28719 5.6847 7.35903C5.86923 7.43086 6.11528 7.46678 6.42283 7.46678H6.73038C6.83974 7.46025 6.94909 7.45698 7.05844 7.45698C7.21563 7.45698 7.37283 7.47657 7.53002 7.51575C7.68722 7.55493 7.81707 7.63003 7.91959 7.74105C8.02211 7.85207 8.07337 8.01532 8.07337 8.23083C8.07337 8.45286 8.01869 8.62265 7.90934 8.74019C7.79999 8.85121 7.65304 8.92957 7.46851 8.97528C7.29081 9.01447 7.09261 9.03406 6.87391 9.03406C6.66887 9.03406 6.457 9.02426 6.2383 9.00467C6.01959 8.98508 5.81456 8.97528 5.62319 8.97528C5.34298 8.97528 5.14478 9.02753 5.02859 9.13201C4.9124 9.22997 4.85431 9.35404 4.85431 9.50424C4.85431 9.64791 4.89873 9.79158 4.98758 9.93524C5.08327 10.0724 5.29855 10.1736 5.63344 10.2389C5.7633 10.265 5.91024 10.2846 6.07427 10.2977Z" fill="black"/>
<path fill-rule="evenodd" clip-rule="evenodd" d="M14 7C14 10.866 10.866 14 7 14C3.13401 14 0 10.866 0 7C0 3.13401 3.13401 0 7 0C10.866 0 14 3.13401 14 7ZM12.5 7C12.5 10.0376 10.0376 12.5 7 12.5C3.96243 12.5 1.5 10.0376 1.5 7C1.5 3.96243 3.96243 1.5 7 1.5C10.0376 1.5 12.5 3.96243 12.5 7Z" fill="black"/>
</svg>
