<svg width="1260" height="20" viewBox="0 0 1260 20" fill="none" xmlns="http://www.w3.org/2000/svg">
<rect y="6" width="1260" height="8" rx="4" fill="#BABDBF"/>
<path d="M0 10C0 7.79086 1.79086 6 4 6H496C498.209 6 500 7.79086 500 10C500 12.2091 498.209 14 496 14H4.00001C1.79087 14 0 12.2091 0 10Z" fill="#303233"/>
<path d="M492.207 9.70801C492.372 9.55139 492.688 9.26835 493.107 8.97713C493.793 8.49956 494.755 8 495.772 8C497.047 8 498.08 8.89543 498.08 10C498.08 11.1046 497.047 12 495.772 12C494.157 12 492.651 10.7069 492.21 10.2927C492.124 10.2122 492.08 10.1074 492.08 9.99904C492.08 9.8918 492.123 9.78809 492.207 9.70801Z" fill="#7F7F7F"/>
<path fill-rule="evenodd" clip-rule="evenodd" d="M518.986 10.601C519.216 10.2616 519.233 9.78273 518.999 9.41875C516.964 6.24965 513.499 4.6235 510.038 5.21315L509.727 5.2661L507.435 2.92953C507.296 2.78763 507.12 2.69807 506.932 2.67353L501.837 2.00687C501.514 1.96458 501.196 2.11979 501.005 2.41269C500.814 2.70559 500.78 3.09048 500.916 3.41907L502.709 7.73979C503.048 8.63163 503.192 9.33474 503.192 10C503.192 10.6653 503.048 11.3685 502.709 12.2605L500.916 16.5809C500.78 16.9095 500.814 17.2944 501.005 17.5873C501.196 17.8802 501.514 18.0354 501.837 17.9931L506.932 17.3265C507.12 17.3019 507.296 17.2124 507.435 17.0705L509.727 14.7339L510.038 14.7868C513.492 15.3752 516.949 13.7571 518.986 10.601ZM517.127 9.99998C515.454 7.83011 512.881 6.75214 510.31 7.19009L504.744 8.13829C504.904 8.76284 504.99 9.37418 504.99 10C504.99 10.6258 504.904 11.2371 504.744 11.8617L510.31 12.8099C512.881 13.2478 515.454 12.1699 517.127 9.99998Z" fill="#303233"/>
</svg>
