<svg width="20" height="20" viewBox="0 0 20 20" fill="none" xmlns="http://www.w3.org/2000/svg">
<path fill-rule="evenodd" clip-rule="evenodd" d="M18.9864 10.601C19.2159 10.2616 19.2329 9.78273 18.9991 9.41875C16.9639 6.24965 13.4988 4.6235 10.0375 5.21315L9.72672 5.2661L7.43491 2.92953C7.29573 2.78763 7.11993 2.69807 6.93242 2.67353L1.83749 2.00687C1.51434 1.96458 1.19586 2.11979 1.00475 2.41269C0.813643 2.70559 0.779734 3.09048 0.91609 3.41907L2.70907 7.73979C3.0478 8.63163 3.19221 9.33474 3.19221 10C3.19221 10.6653 3.04776 11.3685 2.70893 12.2605L0.91609 16.5809C0.779734 16.9095 0.813643 17.2944 1.00475 17.5873C1.19586 17.8802 1.51434 18.0354 1.83749 17.9931L6.93242 17.3265C7.11993 17.3019 7.29573 17.2124 7.43491 17.0705L9.72675 14.7339L10.0375 14.7868C13.4915 15.3752 16.9494 13.7571 18.9864 10.601ZM17.1265 9.99998C15.454 7.83011 12.8805 6.75214 10.3098 7.19009L4.74401 8.13829C4.90434 8.76284 4.99042 9.37418 4.99042 10C4.99042 10.6258 4.90434 11.2371 4.74401 11.8617L10.3098 12.8099C12.8805 13.2478 15.454 12.1699 17.1265 9.99998Z" fill="#303233"/>
</svg>
