<svg width="14" height="14" viewBox="0 0 14 14" fill="none" xmlns="http://www.w3.org/2000/svg">
<path fill-rule="evenodd" clip-rule="evenodd" d="M3.84321 9.94384L3.64863 12.2789C3.63871 12.3979 3.73264 12.5 3.85208 12.5C3.90208 12.5 3.95034 12.4817 3.98772 12.4484L6.19716 10.4845L6.78654 10.4976C6.85725 10.4992 6.92841 10.5 7 10.5C8.69482 10.5 10.0868 10.0596 11.0203 9.32265C11.9094 8.62078 12.5 7.56344 12.5 6C12.5 4.43656 11.9094 3.37922 11.0203 2.67735C10.0868 1.94041 8.69482 1.5 7 1.5C5.30518 1.5 3.9132 1.94041 2.97968 2.67735C2.09059 3.37922 1.5 4.43656 1.5 6C1.5 7.6477 2.15593 8.74243 3.14751 9.44847L3.84321 9.94384ZM4.98426 13.5695L6.75309 11.9973C6.83504 11.9991 6.91735 12 7 12C10.866 12 14 10 14 6C14 2 10.866 0 7 0C3.13401 0 0 2 0 6C0 8.117 0.877853 9.67379 2.27747 10.6704L2.15381 12.1543C2.07101 13.1479 2.85508 14 3.85208 14C4.26945 14 4.67231 13.8468 4.98426 13.5695Z" fill="black"/>
</svg>
