<svg width="143" height="40" viewBox="0 0 143 40" fill="none" xmlns="http://www.w3.org/2000/svg">
<path d="M0.5 8C0.5 3.85786 3.85786 0.5 8 0.5H135C139.142 0.5 142.5 3.85786 142.5 8V32C142.5 36.1421 139.142 39.5 135 39.5H8C3.85787 39.5 0.5 36.1421 0.5 32V8Z" fill="white"/>
<path d="M0.5 8C0.5 3.85786 3.85786 0.5 8 0.5H135C139.142 0.5 142.5 3.85786 142.5 8V32C142.5 36.1421 139.142 39.5 135 39.5H8C3.85787 39.5 0.5 36.1421 0.5 32V8Z" stroke="#BABDBF"/>
<g clip-path="url(#clip0_2002_15698)">
<path d="M19.7578 29.1797V28.1641H29.0781V29.1797H19.7578ZM28.6641 29.1797V28.1641H37.9844V29.1797H28.6641ZM39.2656 26V24.3984H40.8672V26H39.2656ZM42.0234 29.1797V28.1641H51.3438V29.1797H42.0234ZM50.9297 29.1797V28.1641H60.25V29.1797H50.9297ZM61.5312 26V24.3984H63.1328V26H61.5312ZM64.2891 29.1797V28.1641H73.6094V29.1797H64.2891ZM73.1953 29.1797V28.1641H82.5156V29.1797H73.1953ZM82.1016 29.1797V28.1641H91.4219V29.1797H82.1016ZM91.0078 29.1797V28.1641H100.328V29.1797H91.0078Z" fill="#959799"/>
</g>
<path d="M111.5 18.3337H126.5M115.667 15.0003V11.667M122.333 15.0003V11.667M116.833 28.3337H121.167C123.034 28.3337 123.967 28.3337 124.68 27.9703C125.307 27.6508 125.817 27.1408 126.137 26.5136C126.5 25.8006 126.5 24.8672 126.5 23.0003V18.667C126.5 16.8002 126.5 15.8667 126.137 15.1537C125.817 14.5265 125.307 14.0165 124.68 13.697C123.967 13.3337 123.034 13.3337 121.167 13.3337H116.833C114.966 13.3337 114.033 13.3337 113.32 13.697C112.693 14.0165 112.183 14.5265 111.863 15.1537C111.5 15.8667 111.5 16.8002 111.5 18.667V23.0003C111.5 24.8672 111.5 25.8006 111.863 26.5136C112.183 27.1408 112.693 27.6508 113.32 27.9703C114.033 28.3337 114.966 28.3337 116.833 28.3337Z" stroke="#959799" stroke-width="2" stroke-linecap="round"/>
<defs>
<clipPath id="clip0_2002_15698">
<rect width="81" height="24" fill="white" transform="translate(20 8)"/>
</clipPath>
</defs>
</svg>
