<svg width="14" height="14" viewBox="0 0 14 14" fill="none" xmlns="http://www.w3.org/2000/svg">
<path fill-rule="evenodd" clip-rule="evenodd" d="M12.5 7C12.5 10.0376 10.0376 12.5 7 12.5C3.96243 12.5 1.5 10.0376 1.5 7C1.5 3.96243 3.96243 1.5 7 1.5C10.0376 1.5 12.5 3.96243 12.5 7ZM14 7C14 10.866 10.866 14 7 14C3.13401 14 0 10.866 0 7C0 3.13401 3.13401 0 7 0C10.866 0 14 3.13401 14 7ZM10.1 5.45C10.3485 5.11863 10.2814 4.64853 9.95 4.4C9.61863 4.15147 9.14853 4.21863 8.9 4.55L6.41885 7.85819L5.03033 6.46967C4.73744 6.17678 4.26256 6.17678 3.96967 6.46967C3.67678 6.76256 3.67678 7.23744 3.96967 7.53033L5.96967 9.53033C6.12341 9.68407 6.3363 9.76353 6.55317 9.74811C6.77004 9.7327 6.96955 9.62393 7.1 9.45L10.1 5.45Z" fill="black"/>
</svg>
