<svg width="30.000000" height="30.000000" viewBox="0 0 30 30" fill="none" xmlns="http://www.w3.org/2000/svg" xmlns:xlink="http://www.w3.org/1999/xlink">
	<desc>
			Created with Pixso.
	</desc>
	<defs/>
	<rect id=".icon" width="30.000000" height="30.000000" fill="#FFFFFF" fill-opacity="0"/>
	<path id="Shape" d="M16.04 6.93L15 8.01L13.95 6.93L13.34 6.29C11.97 4.87 10.03 4.22 8.13 4.54C6.22 4.86 4.58 6.12 3.71 7.91C2.56 10.32 3.01 13.22 4.84 15.12L13.97 25.02L15 26.13L16.02 25.02L25.15 15.12C26.98 13.22 27.43 10.32 26.28 7.91C25.41 6.12 23.77 4.86 21.86 4.54C19.96 4.22 18.02 4.87 16.65 6.29L16.04 6.93ZM15 23.92L24.07 14.08Q25.21 12.89 25.44 11.55Q25.68 10.14 24.93 8.56Q24.36 7.38 23.42 6.73Q22.64 6.19 21.62 6.02Q20.55 5.84 19.63 6.12Q18.59 6.44 17.73 7.33L16.08 9.05Q16.07 9.06 16.06 9.07Q16.05 9.08 16.04 9.09Q15.59 9.52 14.97 9.51Q14.35 9.5 13.91 9.05L12.26 7.33Q11.4 6.44 10.36 6.12Q9.44 5.84 8.37 6.02Q7.35 6.19 6.57 6.73Q5.63 7.38 5.06 8.56Q4.3 10.14 4.55 11.55Q4.78 12.89 5.92 14.08L5.94 14.11L15 23.92Z" fill="#FFFFFF" fill-opacity="1.000000" fill-rule="evenodd"/>
</svg>
