<svg width="18" height="20" viewBox="0 0 18 20" fill="none" xmlns="http://www.w3.org/2000/svg">
<path d="M1.5 8.33317H16.5M5.66667 4.99984V1.6665M12.3333 4.99984V1.6665M6.83333 18.3332H11.1667C13.0335 18.3332 13.9669 18.3332 14.68 17.9699C15.3072 17.6503 15.8171 17.1403 16.1367 16.5131C16.5 15.8001 16.5 14.8667 16.5 12.9998V8.6665C16.5 6.79966 16.5 5.86624 16.1367 5.1532C15.8171 4.526 15.3072 4.01606 14.68 3.69648C13.9669 3.33317 13.0335 3.33317 11.1667 3.33317H6.83333C4.96649 3.33317 4.03307 3.33317 3.32003 3.69648C2.69282 4.01606 2.18289 4.526 1.86331 5.1532C1.5 5.86624 1.5 6.79966 1.5 8.6665V12.9998C1.5 14.8667 1.5 15.8001 1.86331 16.5131C2.18289 17.1403 2.69282 17.6503 3.32003 17.9699C4.03307 18.3332 4.96649 18.3332 6.83333 18.3332Z" stroke="#959799" stroke-width="2" stroke-linecap="round"/>
</svg>
