<svg width="22" height="16" viewBox="0 0 22 16" fill="none" xmlns="http://www.w3.org/2000/svg">
<path fill-rule="evenodd" clip-rule="evenodd" d="M21.7836 8.60102C22.0591 8.26158 22.0795 7.78273 21.7989 7.41875C19.3566 4.24965 15.1985 2.6235 11.045 3.21315L10.6721 3.2661L7.92189 0.929527C7.75488 0.787631 7.54391 0.698066 7.3189 0.673531L1.20499 0.00686533C0.817204 -0.0354193 0.43503 0.119788 0.205701 0.412691C-0.0236275 0.705594 -0.064318 1.09048 0.0993086 1.41907L2.25088 5.73979C2.65736 6.63163 2.83065 7.33474 2.83065 8C2.83065 8.66534 2.65732 9.36855 2.25072 10.2605L0.0993086 14.5809C-0.064318 14.9095 -0.0236275 15.2944 0.205701 15.5873C0.43503 15.8802 0.817204 16.0354 1.20499 15.9931L7.3189 15.3265C7.54391 15.3019 7.75488 15.2124 7.92189 15.0705L10.6721 12.7339L11.045 12.7868C15.1898 13.3752 19.3393 11.7571 21.7836 8.60102ZM19.5518 7.99998C17.5448 5.83011 14.4567 4.75214 11.3718 5.19009L4.69281 6.13829C4.88521 6.76284 4.9885 7.37418 4.9885 8C4.9885 8.62582 4.88521 9.23714 4.69282 9.86169L11.3718 10.8099C14.4567 11.2478 17.5448 10.1699 19.5518 7.99998Z" fill="#7F7F7F"/>
</svg>
