<svg width="14" height="14" viewBox="0 0 14 14" fill="none" xmlns="http://www.w3.org/2000/svg">
<path fill-rule="evenodd" clip-rule="evenodd" d="M12.5 7C12.5 10.0376 10.0376 12.5 7 12.5C3.96243 12.5 1.5 10.0376 1.5 7C1.5 3.96243 3.96243 1.5 7 1.5C10.0376 1.5 12.5 3.96243 12.5 7ZM14 7C14 10.866 10.866 14 7 14C3.13401 14 0 10.866 0 7C0 3.13401 3.13401 0 7 0C10.866 0 14 3.13401 14 7ZM8 4.50001C8 4.20899 7.83166 3.94425 7.56812 3.82082C7.30458 3.69738 6.99342 3.73754 6.76986 3.92384L5.26986 5.17384C4.95165 5.43901 4.90866 5.91194 5.17383 6.23015C5.43901 6.54835 5.91193 6.59135 6.23014 6.32617L6.5 6.10129V9.50001C6.5 9.91422 6.83579 10.25 7.25 10.25C7.66421 10.25 8 9.91422 8 9.50001V4.50001Z" fill="black"/>
</svg>
