<svg width="22" height="22" viewBox="0 0 22 22" fill="none" xmlns="http://www.w3.org/2000/svg">
<path fill-rule="evenodd" clip-rule="evenodd" d="M11 21.5C16.799 21.5 21.5 16.799 21.5 11C21.5 5.20101 16.799 0.5 11 0.5C5.20101 0.5 0.5 5.20101 0.5 11C0.5 16.799 5.20101 21.5 11 21.5ZM15.65 8.675C16.0228 8.17794 15.9221 7.47279 15.425 7.1C14.9279 6.72721 14.2228 6.82794 13.85 7.325L10.1283 12.2873L8.04549 10.2045C7.60615 9.76516 6.89384 9.76516 6.4545 10.2045C6.01516 10.6438 6.01516 11.3562 6.4545 11.7955L9.4545 14.7955C9.68511 15.0261 10.0044 15.1453 10.3297 15.1222C10.6551 15.099 10.9543 14.9359 11.15 14.675L15.65 8.675Z" fill="#4BB24E"/>
</svg>
